:version 1.10
:name ASF
:units
  mass 1
  length 1
  angle deg
:documentation
  ASF file generated by Kaydara
:root
  axis xyz
  order  tx ty tz rx ry rz
  position 0 0 0
  orientation 0 0 0
:bonedata
  begin
    id 1
    name RightUpLegDummy
    direction -0.718183 -0.695806 0.00816078
    length 4.904
    axis 0 0 0 xyz
  end
  begin
    id 2
    name RightUpLeg
    direction 3.53373e-006 -0.995788 0.0916898
    length 17.4976
    axis -3.49089 -0.000906625 0.000286804 xyz
    dof rx ry rz
  end
  begin
    id 3
    name RightLeg
    direction 0.00371092 -0.995096 -0.0988419
    length 16.5821
    axis 3.68512 0.0193738 -0.131023 xyz
    dof rx ry rz
  end
  begin
    id 4
    name RightFoot
    direction 0.00079151 -0.46099 0.887405
    length 3.77069
    axis 4.81691e-005 -0.120479 -0.188788 xyz
    dof rx ry rz
  end
  begin
    id 5
    name RightToes
    direction 0 0 0
    length 0
    axis 0 0 0 xyz
    dof rx ry rz
  end
  begin
    id 6
    name SpineDummy
    direction 8.3039e-015 1 4.57515e-016
    length 4.6813
    axis 0 0 0 xyz
  end
  begin
    id 7
    name Spine
    direction -3.15643e-008 0.999988 0.00495137
    length 10.1015
    axis -0.001389 0.000121418 2.40972e-006 xyz
    dof rx ry rz
  end
  begin
    id 8
    name Spine1
    direction 0 0 0
    length 0
    axis -0.001389 0.000121451 1.30017e-006 xyz
    dof rx ry rz
  end
  begin
    id 9
    name HEadDummy
    direction -1.99912e-008 0.999999 0.00127422
    length 3.43865
    axis -0.001389 0.000121451 1.30017e-006 xyz
  end
  begin
    id 10
    name HEad
    direction 0 0 0
    length 0
    axis 0 0 0 xyz
    dof rx ry rz
  end
  begin
    id 11
    name LeftShoulder1Dummy
    direction 0.998891 -0.0402509 -0.0244456
    length 3.5433
    axis -0.001389 0.000121451 1.30017e-006 xyz
  end
  begin
    id 12
    name LeftShoulder1
    direction 0.99951 -0.000327763 0.0313091
    length 4.05031
    axis -0.001389 0.000121451 1.30017e-006 xyz
    dof rx ry rz
  end
  begin
    id 13
    name LeftArm
    direction 0.998561 -0.00100056 -0.0536182
    length 10.3537
    axis -23.1894 0.134784 0.967509 xyz
    dof rx ry rz
  end
  begin
    id 14
    name LeftForeArm
    direction 0.998903 0.00866432 0.046012
    length 8.70632
    axis -9.91835 -0.06569 -0.177794 xyz
    dof rx ry rz
  end
  begin
    id 15
    name LeftHand
    direction 0 0 0
    length 0
    axis 0 0 0 xyz
    dof rx ry rz
  end
  begin
    id 16
    name RightShoulderDummy
    direction -0.998891 -0.0402509 -0.0244414
    length 3.5433
    axis -0.001389 0.000121451 1.30017e-006 xyz
  end
  begin
    id 17
    name RightShoulder
    direction -0.99951 -0.000327807 0.0313133
    length 4.05031
    axis 0.215806 0.000203643 -0.0068026 xyz
    dof rx ry rz
  end
  begin
    id 18
    name RightArm
    direction -0.998573 -0.000999564 -0.053403
    length 10.3947
    axis -23.2009 -0.134239 -0.964101 xyz
    dof rx ry rz
  end
  begin
    id 19
    name RightForeArm
    direction -0.998898 0.00868028 0.0461306
    length 8.68355
    axis -9.92322 0.0658061 0.178868 xyz
    dof rx ry rz
  end
  begin
    id 20
    name RightHand
    direction 0 0 0
    length 0
    axis 0 0 0 xyz
    dof rx ry rz
  end
  begin
    id 21
    name LeftUpLegDummy
    direction 0.718183 -0.695806 0.00816078
    length 4.904
    axis 0 0 0 xyz
  end
  begin
    id 22
    name LeftUpLeg
    direction -6.81752e-006 -0.995793 0.0916337
    length 17.4976
    axis -3.48766 0.00143442 -0.000524262 xyz
    dof rx ry rz
  end
  begin
    id 23
    name LeftLeg
    direction -0.00601358 -0.995091 -0.0987824
    length 16.5821
    axis 3.68178 -0.00654042 -0.000285133 xyz
    dof rx ry rz
  end
  begin
    id 24
    name LeftFoot
    direction -0.00417578 -0.460984 0.887399
    length 3.77069
    axis 1.87233e-006 4.66016e-005 -8.6538e-006 xyz
    dof rx ry rz
  end
  begin
    id 25
    name LeftToes
    direction 0 0 0
    length 0
    axis 0 0 0 xyz
    dof rx ry rz
  end
:hierarchy
  begin
    root RightUpLegDummy SpineDummy LeftUpLegDummy
    RightUpLegDummy RightUpLeg
    RightUpLeg RightLeg
    RightLeg RightFoot
    RightFoot RightToes
    SpineDummy Spine
    Spine Spine1
    Spine1 HEadDummy LeftShoulder1Dummy RightShoulderDummy
    HEadDummy HEad
    LeftShoulder1Dummy LeftShoulder1
    LeftShoulder1 LeftArm
    LeftArm LeftForeArm
    LeftForeArm LeftHand
    RightShoulderDummy RightShoulder
    RightShoulder RightArm
    RightArm RightForeArm
    RightForeArm RightHand
    LeftUpLegDummy LeftUpLeg
    LeftUpLeg LeftLeg
    LeftLeg LeftFoot
    LeftFoot LeftToes
  end

:SAMPLES-PER-SECOND 30
:FULLY-SPECIFIED
:DEGREES
120
root  12.695 40.8312 8.15463 114.707 88.211 111.199
RightUpLeg  -6.75996 -10.1204 -8.76625
RightLeg  3.64887 -8.47934 3.45023
RightFoot  2.84166 -0.122584 1.14299
RightToes  0.000481921 0.542163 -0.142578
Spine  13.7279 2.71973 13.464
Spine1  -8.41259 5.92235 -17.1583
HEad  19.0375 -16.1153 3.88212
LeftShoulder1  6.18436 -10.9201 -36.7646
LeftArm  -4.27856 22.1343 -33.393
LeftForeArm  -179.607 -54.2732 -166.863
LeftHand  -0.25398 0.0180481 5.50724
RightShoulder  0.783027 1.62726 7.63717
RightArm  -27.9785 39.2285 42.6652
RightForeArm  19.9627 69.3745 34.5685
RightHand  -1.51813 5.64435 -15.6576
LeftUpLeg  -5.14857 5.55457 3.85824
LeftLeg  0.0082163 17.6196 -4.77925
LeftFoot  3.1645 0.212509 -1.82061
LeftToes  1.06247e-005 4.65869e-005 -8.65511e-006
121
root  12.9297 40.8336 8.326 166.968 85.3469 164.074
RightUpLeg  -5.2229 -10.6202 -9.10085
RightLeg  4.32762 -11.0651 3.61874
RightFoot  1.67745 -0.135859 1.28502
RightToes  0.000481921 0.542163 -0.142578
Spine  12.6547 1.58407 8.04892
Spine1  -6.82201 3.57226 -10.0437
HEad  17.6366 -15.0435 2.85293
LeftShoulder1  6.03664 -10.2672 -37.688
LeftArm  -4.17707 23.2469 -32.9561
LeftForeArm  179.917 -54.2018 -166.86
LeftHand  -0.25398 0.0180481 5.50724
RightShoulder  1.47778 3.18809 15.4685
RightArm  -22.383 18.2896 44.3326
RightForeArm  123.707 75.1712 136.662
RightHand  -0.182904 -2.59265 -7.36242
LeftUpLeg  -4.57961 5.15164 3.81589
LeftLeg  -0.151287 14.7289 -4.32035
LeftFoot  3.51143 0.212244 -1.79153
LeftToes  1.06247e-005 4.65869e-005 -8.65511e-006
122
root  13.1387 40.8123 8.51178 166.549 82.8169 163.783
RightUpLeg  -5.18851 -10.9833 -9.43218
RightLeg  6.33777 -13.1274 2.99469
RightFoot  0.290795 -0.0927743 0.928498
RightToes  0.000481921 0.542163 -0.142578
Spine  12.6905 0.970249 3.2928
Spine1  -6.68824 1.79826 -4.0415
HEad  15.9515 -13.765 1.21916
LeftShoulder1  5.55636 -8.99514 -38.2753
LeftArm  -3.2087 22.6585 -31.6037
LeftForeArm  -178.61 -54.3247 -166.914
LeftHand  -0.25398 0.0180481 5.50724
RightShoulder  1.97201 3.09063 23.7806
RightArm  -19.8487 -3.44174 43.6826
RightForeArm  153.542 58.839 162.927
RightHand  -0.00485974 -6.14994 -2.07909
LeftUpLeg  -4.40525 4.75981 3.47537
LeftLeg  -0.344994 12.6886 -4.20334
LeftFoot  3.82663 0.226602 -1.87696
LeftToes  1.06247e-005 4.65869e-005 -8.65511e-006
123
root  13.3171 40.778 8.60597 168.985 80.3489 166.34
RightUpLeg  -4.96035 -11.5297 -9.72586
RightLeg  7.90429 -15.0329 2.45508
RightFoot  -0.781439 -0.0737032 0.743441
RightToes  0.000481921 0.542163 -0.142578
Spine  13.129 -0.148241 -0.917726
Spine1  -7.22369 -0.516689 2.35957
HEad  14.9696 -10.7651 -1.36594
LeftShoulder1  4.90547 -7.34824 -38.9633
LeftArm  -4.11345 22.8545 -31.3687
LeftForeArm  -177.566 -54.0032 -167.141
LeftHand  -0.25398 0.0180481 5.50724
RightShoulder  2.40053 3.03456 30.6756
RightArm  -18.1379 -20.7442 41.9018
RightForeArm  157.969 50.2686 167.146
RightHand  -0.0512872 -4.80254 -2.09839
LeftUpLeg  -4.62708 4.47744 3.20718
LeftLeg  0.180757 10.5016 -3.98237
LeftFoot  3.72229 0.218342 -1.82184
LeftToes  1.06247e-005 4.65869e-005 -8.65511e-006
124
root  13.4379 40.7509 8.53939 169.757 79.6685 167.678
RightUpLeg  -4.25027 -12.1676 -9.98275
RightLeg  8.56197 -14.9765 2.31296
RightFoot  -1.25512 -0.100533 1.04124
RightToes  0.000481921 0.542163 -0.142578
Spine  13.1135 -1.53887 -2.4807
Spine1  -6.65024 -2.47532 5.49033
HEad  15.0067 -6.85623 -3.35008
LeftShoulder1  4.51304 -6.33983 -39.5476
LeftArm  -7.24239 23.9747 -31.896
LeftForeArm  -178.88 -53.4781 -167.284
LeftHand  -0.25398 0.0180481 5.50724
RightShoulder  2.87273 4.00347 32.3609
RightArm  -16.3935 -30.3819 43.6648
RightForeArm  154.174 49.0958 167.219
RightHand  -0.153214 -2.63906 -5.67547
LeftUpLeg  -4.34905 4.54926 3.18304
LeftLeg  1.09806 9.66382 -3.78768
LeftFoot  3.1213 0.191148 -1.65584
LeftToes  1.06247e-005 4.65869e-005 -8.65511e-006
125
root  13.5079 40.7425 8.37056 164.777 82.0872 163.331
RightUpLeg  -4.18067 -12.2842 -10.0785
RightLeg  8.88953 -12.2747 2.02848
RightFoot  -1.21473 -0.136671 1.44765
RightToes  0.000481921 0.542163 -0.142578
Spine  12.1046 -1.98184 -0.661447
Spine1  -4.89125 -2.46867 2.85594
HEad  15.7929 -4.46267 -2.9664
LeftShoulder1  4.57845 -6.43744 -39.7523
LeftArm  -10.0581 24.0055 -31.6197
LeftForeArm  179.315 -53.3756 -167.195
LeftHand  -0.25398 0.0180481 5.50724
RightShoulder  3.10813 5.0002 30.5777
RightArm  -15.3542 -33.2639 47.3679
RightForeArm  150.755 51.7097 165.826
RightHand  -0.295898 -1.51538 -8.73988
LeftUpLeg  -3.26717 4.93126 3.22182
LeftLeg  1.44144 11.6467 -3.93855
LeftFoot  2.43509 0.180395 -1.61644
LeftToes  1.06247e-005 4.65869e-005 -8.65511e-006
126
root  13.5592 40.75 8.19651 142.688 85.7014 141.572
RightUpLeg  -4.85594 -11.5153 -9.98011
RightLeg  9.01126 -8.90838 1.48268
RightFoot  -0.908171 -0.15292 1.60694
RightToes  0.000481921 0.542163 -0.142578
Spine  10.8139 -1.19469 2.139
Spine1  -3.31074 -0.780794 -1.78912
HEad  16.5973 -4.07724 -1.02476
LeftShoulder1  4.88707 -7.10105 -39.7913
LeftArm  -10.9909 22.3236 -30.6135
LeftForeArm  179.186 -53.7942 -166.994
LeftHand  -0.25398 0.0180481 5.50724
RightShoulder  3.08746 5.21603 29.4226
RightArm  -13.9009 -30.7658 47.5501
RightForeArm  153.983 54.0008 164.958
RightHand  -0.306808 -1.5826 -9.06633
LeftUpLeg  -1.89767 5.26993 3.10505
LeftLeg  0.936721 15.3012 -4.39023
LeftFoot  2.02784 0.184412 -1.67856
LeftToes  1.06247e-005 4.65869e-005 -8.65511e-006
127
root  13.594 40.7562 8.03323 91.5295 87.3161 90.5338
RightUpLeg  -5.41207 -10.5212 -9.8874
RightLeg  8.68191 -6.43307 1.21331
RightFoot  -0.514213 -0.158364 1.63316
RightToes  0.000481921 0.542163 -0.142578
Spine  10.0467 -0.289517 3.95402
Spine1  -2.65863 0.653498 -4.20762
HEad  17.0086 -3.73364 -0.180066
LeftShoulder1  5.15915 -7.65021 -39.9635
LeftArm  -11.0609 20.5778 -30.2121
LeftForeArm  179.872 -54.2568 -166.83
LeftHand  -0.25398 0.0180481 5.50724
RightShoulder  2.99885 4.94905 29.4963
RightArm  -11.0663 -24.3586 44.5431
RightForeArm  161.066 55.0159 164.975
RightHand  -0.227846 -2.07194 -7.53224
LeftUpLeg  -0.988818 5.44491 2.91467
LeftLeg  0.526246 18.5213 -4.75315
LeftFoot  1.69237 0.17352 -1.6084
LeftToes  1.06247e-005 4.65869e-005 -8.65511e-006
